REM GENRE Soundtrack
REM DATE 2011
REM DISCID A211B22E
REM COMMENT "ExactAudioCopy v1.0b3"
PERFORMER "松尾早人"
TITLE "神のみぞ知るセカイ Original Soundtrack"
FILE "cdimage.wav" WAVE
  TRACK 01 AUDIO
    TITLE "恋‾口づけまでの距離 [メインテーマ]"
    PERFORMER "松尾早人"
    INDEX 01 00:00:00
  TRACK 02 AUDIO
    TITLE "God only knows 第三幕"
    PERFORMER "Oratorio The World god Only Knows"
    INDEX 00 03:08:15
    INDEX 01 03:09:28
  TRACK 03 AUDIO
    TITLE "NOW PLAYING"
    PERFORMER "松尾早人"
    INDEX 00 04:39:24
    INDEX 01 04:41:37
  TRACK 04 AUDIO
    TITLE "我が名は落とし神"
    PERFORMER "松尾早人"
    INDEX 00 06:25:15
    INDEX 01 06:26:28
  TRACK 05 AUDIO
    TITLE "空から落ちてきた小悪魔"
    PERFORMER "松尾早人"
    INDEX 00 07:39:27
    INDEX 01 07:40:40
  TRACK 06 AUDIO
    TITLE "さぁ、駆け魂狩りへ!"
    PERFORMER "松尾早人"
    INDEX 00 09:24:03
    INDEX 01 09:25:16
  TRACK 07 AUDIO
    TITLE "心のスキマ"
    PERFORMER "松尾早人"
    INDEX 00 10:59:19
    INDEX 01 11:00:32
  TRACK 08 AUDIO
    TITLE "走り出したら止まれない少女"
    PERFORMER "松尾早人"
    INDEX 00 12:19:23
    INDEX 01 12:20:36
  TRACK 09 AUDIO
    TITLE "華麗なる攻略"
    PERFORMER "松尾早人"
    INDEX 00 13:59:45
    INDEX 01 14:00:58
  TRACK 10 AUDIO
    TITLE "少女の涙"
    PERFORMER "松尾早人"
    INDEX 00 15:37:21
    INDEX 01 15:38:34
  TRACK 11 AUDIO
    TITLE "見えたぞ、エンディングが"
    PERFORMER "松尾早人"
    INDEX 00 17:18:38
    INDEX 01 17:19:51
  TRACK 12 AUDIO
    TITLE "コイノシルシ feat.高原歩美 (TV-EDIT)"
    PERFORMER "高原歩美 starring 竹達彩奈"
    INDEX 00 18:56:14
    INDEX 01 18:57:27
  TRACK 13 AUDIO
    TITLE "あくまでも妹です"
    PERFORMER "松尾早人"
    INDEX 00 20:27:50
    INDEX 01 20:30:63
  TRACK 14 AUDIO
    TITLE "気高くも可憐な少女"
    PERFORMER "松尾早人"
    INDEX 00 22:10:54
    INDEX 01 22:11:67
  TRACK 15 AUDIO
    TITLE "ルート検索中"
    PERFORMER "松尾早人"
    INDEX 00 23:44:65
    INDEX 01 23:46:03
  TRACK 16 AUDIO
    TITLE "令嬢の秘密"
    PERFORMER "松尾早人"
    INDEX 00 25:05:16
    INDEX 01 25:06:29
  TRACK 17 AUDIO
    TITLE "恋の予感"
    PERFORMER "松尾早人"
    INDEX 00 26:37:64
    INDEX 01 26:39:40
  TRACK 18 AUDIO
    TITLE "コイノシルシ feat.青山美生 (TV-EDIT)"
    PERFORMER "青山美生 starring 悠木 碧"
    INDEX 00 28:55:57
    INDEX 01 28:56:70
  TRACK 19 AUDIO
    TITLE "神にーさま‾"
    PERFORMER "松尾早人"
    INDEX 00 30:27:13
    INDEX 01 30:30:26
  TRACK 20 AUDIO
    TITLE "モノローグ"
    PERFORMER "松尾早人"
    INDEX 00 32:02:39
    INDEX 01 32:03:52
  TRACK 21 AUDIO
    TITLE "無限回廊のヒロイン"
    PERFORMER "松尾早人"
    INDEX 00 33:34:42
    INDEX 01 33:35:55
  TRACK 22 AUDIO
    TITLE "体力>知力"
    PERFORMER "松尾早人"
    INDEX 00 35:24:55
    INDEX 01 35:25:68
  TRACK 23 AUDIO
    TITLE "せつない幕切れ"
    PERFORMER "松尾早人"
    INDEX 00 36:33:54
    INDEX 01 36:34:67
  TRACK 24 AUDIO
    TITLE "たった一度の奇跡 (TV-EDIT)"
    PERFORMER "飛鳥空 starring 櫻井智"
    INDEX 00 38:26:31
    INDEX 01 38:27:44
  TRACK 25 AUDIO
    TITLE "神さま‾"
    PERFORMER "松尾早人"
    INDEX 00 39:57:73
    INDEX 01 40:00:11
  TRACK 26 AUDIO
    TITLE "ありふれた現実(リアル)"
    PERFORMER "松尾早人"
    INDEX 00 41:42:18
    INDEX 01 41:43:31
  TRACK 27 AUDIO
    TITLE "不明瞭なルート"
    PERFORMER "松尾早人"
    INDEX 00 42:51:45
    INDEX 01 42:52:58
  TRACK 28 AUDIO
    TITLE "限りなく透明な存在"
    PERFORMER "松尾早人"
    INDEX 00 44:33:26
    INDEX 01 44:34:39
  TRACK 29 AUDIO
    TITLE "誰も知らない…"
    PERFORMER "松尾早人"
    INDEX 00 46:07:38
    INDEX 01 46:08:51
  TRACK 30 AUDIO
    TITLE "選択肢総当り"
    PERFORMER "松尾早人"
    INDEX 00 47:47:50
    INDEX 01 47:48:63
  TRACK 31 AUDIO
    TITLE "恋、ヨロシクお願いします!‾追憶‾"
    PERFORMER "松尾早人"
    INDEX 00 49:33:05
    INDEX 01 49:34:55
  TRACK 32 AUDIO
    TITLE "コイノシルシ feat.中川かのん (TV-EDIT)"
    PERFORMER "中川かのん starring 東山奈央"
    INDEX 00 51:43:13
    INDEX 01 51:44:26
  TRACK 33 AUDIO
    TITLE "いってきまーす!"
    PERFORMER "松尾早人"
    INDEX 00 53:14:56
    INDEX 01 53:16:69
  TRACK 34 AUDIO
    TITLE "迫り来る影"
    PERFORMER "松尾早人"
    INDEX 00 54:30:34
    INDEX 01 54:31:47
  TRACK 35 AUDIO
    TITLE "ゆるい日常"
    PERFORMER "松尾早人"
    INDEX 00 56:04:24
    INDEX 01 56:05:37
  TRACK 36 AUDIO
    TITLE "行動への起動"
    PERFORMER "松尾早人"
    INDEX 00 57:23:35
    INDEX 01 57:24:48
  TRACK 37 AUDIO
    TITLE "コイノシルシ from Elsie (TV-EDIT)"
    PERFORMER "エルシィ starring 伊藤かな恵"
    INDEX 00 58:52:51
    INDEX 01 58:53:64
  TRACK 38 AUDIO
    TITLE "私、がんばります!"
    PERFORMER "松尾早人"
    INDEX 00 60:25:35
    INDEX 01 60:27:48
  TRACK 39 AUDIO
    TITLE "饒舌な本と無口な少女"
    PERFORMER "松尾早人"
    INDEX 00 62:02:72
    INDEX 01 62:04:10
  TRACK 40 AUDIO
    TITLE "本は愛 本は喜び 本は感動"
    PERFORMER "松尾早人"
    INDEX 00 64:00:05
    INDEX 01 64:01:18
  TRACK 41 AUDIO
    TITLE "去り行くものたちへの鎮魂歌"
    PERFORMER "松尾早人"
    INDEX 00 66:05:21
    INDEX 01 66:06:34
  TRACK 42 AUDIO
    TITLE "恋の調べ"
    PERFORMER "松尾早人"
    INDEX 00 68:02:03
    INDEX 01 68:03:16
  TRACK 43 AUDIO
    TITLE "恋の記憶"
    PERFORMER "松尾早人"
    INDEX 00 70:07:46
    INDEX 01 70:09:24
  TRACK 44 AUDIO
    TITLE "コイノシルシ feat.汐宮栞 (TV-EDIT)"
    PERFORMER "汐宮栞 starring 花澤香菜"
    INDEX 00 71:59:42
    INDEX 01 72:00:55
  TRACK 45 AUDIO
    TITLE "NEXT STAGE"
    PERFORMER "松尾早人"
    INDEX 00 73:30:71
    INDEX 01 73:33:09
  TRACK 46 AUDIO
    TITLE "集積回路の夢旅人 feat.桂木桂馬"
    PERFORMER "桂木桂馬 starring 下野紘"
    INDEX 00 73:51:45
    INDEX 01 73:55:38
